<svg width="244" height="154" viewBox="0 0 244 154" fill="none" xmlns="http://www.w3.org/2000/svg">
<rect width="244" height="154" rx="4" fill="#111116"/>
<g clip-path="url(#clip0)">
<path d="M149.714 23.8014C141.619 19.6185 133.425 15.3434 125.33 11.1605C124.509 10.7485 123.594 10.533 122.664 10.533C121.735 10.533 120.819 10.7485 119.999 11.1605C111.904 15.3434 103.809 19.6185 95.7133 23.8014C94.9375 24.191 94.2833 24.7648 93.8158 25.466C93.3483 26.1671 93.0838 26.9711 93.0483 27.7983V53.2663C93.0613 54.1222 93.3266 54.9579 93.8146 55.6801C94.3026 56.4023 94.9941 56.9826 95.8121 57.3563C98.0828 58.4718 100.255 59.6803 102.526 60.7949L115.754 67.6731L119.801 69.8111C120.077 69.9748 120.376 70.1013 120.689 70.187L121.089 70.375H121.189C122.541 70.7235 123.982 70.5896 125.236 69.9991C133.331 65.8161 141.425 61.5411 149.521 57.3581C150.335 56.9788 151.022 56.3972 151.509 55.6762C151.996 54.9553 152.265 54.1225 152.285 53.2682V27.8002C152.256 26.9821 152.005 26.1847 151.554 25.4845C151.104 24.7843 150.47 24.2048 149.714 23.8014ZM114.669 52.3369L108.351 57.8205C108.311 57.8563 108.264 57.8834 108.212 57.8997C108.16 57.916 108.105 57.921 108.051 57.9145H107.951C107.921 57.9067 107.894 57.8921 107.871 57.8719C107.848 57.8517 107.831 57.8266 107.821 57.7987C107.811 57.7708 107.809 57.741 107.814 57.712C107.819 57.683 107.832 57.6557 107.851 57.6325L110.122 49.8249C110.228 49.3991 110.446 49.0055 110.757 48.6805C111.068 48.3555 111.46 48.1097 111.899 47.966L111.999 47.872C112.115 47.8416 112.236 47.8343 112.355 47.8505C112.474 47.8667 112.588 47.906 112.69 47.966C113.09 48.2479 113.381 48.4312 113.776 48.7093C114.149 48.9604 114.546 49.1782 114.961 49.3597C115.077 49.4075 115.176 49.4852 115.247 49.5839C115.317 49.6825 115.357 49.798 115.36 49.9169L115.56 50.1049C115.609 50.5167 115.553 50.9335 115.398 51.3213C115.243 51.709 114.993 52.0567 114.668 52.3359L114.669 52.3369ZM121.184 46.9454C121.085 46.9454 121.085 47.0394 120.985 47.0394L119.011 46.8514C118.903 46.8391 118.794 46.8496 118.691 46.8821C118.589 46.9146 118.495 46.9684 118.418 47.0394L116.246 48.8982C116.207 48.9342 116.159 48.9613 116.107 48.9775C116.056 48.9938 116 48.9988 115.946 48.9922C114.893 48.5459 113.899 47.9844 112.985 47.3194C112.885 47.2254 112.785 47.1314 112.885 47.0375L113.576 44.3422C113.608 44.2485 113.615 44.1491 113.598 44.0521C113.58 43.9551 113.539 43.8635 113.476 43.7849L112.39 42.2051C112.39 42.1112 112.29 42.1111 112.29 42.0172C112.29 41.8292 112.39 41.6413 112.39 41.3668V41.2729C112.39 41.2729 112.49 41.1789 112.49 41.2729C113.378 41.8302 117.13 43.9682 117.13 43.9682C117.13 43.9682 120.882 46.1061 121.77 46.6634C121.809 46.7003 121.837 46.7448 121.854 46.7937C121.872 46.8425 121.877 46.8943 121.87 46.9454H121.184ZM134.413 29.9354L134.512 30.0294L136.487 30.3113H136.587C136.986 30.4053 137.475 30.8695 136.786 31.7059L128.494 42.3019C128.377 42.3767 128.235 42.41 128.094 42.3959L124.738 40.444C124.573 40.3523 124.386 40.3039 124.195 40.3039C124.004 40.3039 123.816 40.3523 123.652 40.444L122.566 41.0943C122.401 41.1855 122.214 41.2337 122.023 41.2337C121.832 41.2337 121.644 41.1855 121.48 41.0943C121.172 40.8752 120.788 40.7728 120.404 40.8076C120.02 40.8425 119.664 41.0119 119.407 41.2823C118.722 41.7858 117.888 42.0748 117.02 42.1085C116.152 42.1422 115.295 41.919 114.569 41.4702L110.126 38.868L109.927 38.68C109.791 38.5735 109.681 38.442 109.602 38.2936C109.524 38.1453 109.478 37.9832 109.469 37.8175C109.459 37.6519 109.486 37.4862 109.548 37.3308C109.61 37.1754 109.704 37.0335 109.827 36.9142C110.027 36.6098 110.345 36.3909 110.714 36.304C111.082 36.2172 111.472 36.2692 111.801 36.449L112.689 36.9142H112.789C112.889 37.0081 112.989 36.9142 112.989 36.8202L113.189 35.7047C113.189 35.6107 113.189 35.5167 113.089 35.5167L112.889 35.4227C112.702 35.3043 112.568 35.1249 112.512 34.919C112.457 34.7131 112.485 34.4952 112.59 34.3072C112.694 34.1346 112.867 34.0081 113.071 33.9552C113.274 33.9024 113.492 33.9276 113.676 34.0253L119.697 37.4639H119.797C119.897 37.5579 119.997 37.464 120.097 37.37L126.316 29.3762C126.442 29.2246 126.61 29.109 126.802 29.0426C126.994 28.9762 127.202 28.9616 127.402 29.0003L128.981 29.1882L130.067 29.3762C130.067 29.4702 130.167 29.3762 130.167 29.3762C130.266 29.2822 130.266 29.2822 130.167 29.2822C129.974 29.1442 129.845 28.9412 129.808 28.7159C129.771 28.4905 129.828 28.2603 129.967 28.0737L132.04 25.3784C132.16 25.2451 132.312 25.1412 132.484 25.0757C132.656 25.0102 132.843 24.9851 133.027 25.0025L136.976 25.5598C137.053 25.5607 137.129 25.5782 137.198 25.6107C137.267 25.6433 137.328 25.6901 137.375 25.7477L137.475 25.8417C137.675 26.0297 137.575 26.3069 137.375 26.492C137.375 26.492 135.401 29.0012 134.709 29.9316V30.0256C134.214 29.7493 134.214 29.8423 134.412 29.9354H134.413Z" fill="#04D361"/>
<path d="M130.759 14.0418C133.819 11.8108 135.498 11.3465 138.064 11.3465C138.816 11.3467 139.558 11.5057 140.236 11.8117C142.506 13.0203 143.494 16.645 142.802 21.8505L146.06 23.5233C147.146 16.0877 145.66 10.9753 141.815 8.93036C140.609 8.29784 139.246 7.97718 137.866 8.00093C134.411 8.00093 131.647 8.93036 127.303 12.1839C128.587 12.8333 129.674 13.4836 130.759 14.0418Z" fill="white"/>
<path d="M93.0502 46.5685C88.5088 44.5235 87.4229 42.8508 87.4229 40.5267C87.4229 38.1105 89.989 35.7864 94.6293 33.7415V30.0284C87.7193 32.7237 83.8685 36.4415 83.8685 40.4383C83.8685 44.5283 86.1393 47.4096 93.0513 50.1049L93.0502 46.5685Z" fill="white"/>
<path d="M102.23 20.3619C101.637 15.2495 102.629 13.1115 104.994 11.9039C105.645 11.5316 106.408 11.3684 107.166 11.4387C109.733 11.4387 112.694 12.7403 115.75 14.9704L119.008 13.2975C114.763 10.044 110.518 8.18515 107.062 8.18515C105.682 8.16157 104.319 8.48222 103.113 9.11457C99.2637 11.2526 97.6837 14.7843 98.8685 22.2198C100.058 21.4774 101.144 20.9201 102.23 20.3619Z" fill="white"/>
<path d="M152.18 30.9579V34.4895C156.722 36.5345 157.808 38.2073 157.808 40.5314C157.808 42.9475 155.241 45.2716 150.601 47.3166V51.0343C157.511 48.339 161.362 44.6213 161.362 40.6244C161.361 36.5345 159.189 33.6531 152.18 30.9579Z" fill="white"/>
<path d="M114.569 66.9288C111.508 69.1599 109.83 69.6241 107.264 69.6241C106.512 69.624 105.77 69.465 105.092 69.1589C102.722 67.9504 101.834 64.2326 102.524 59.1202C101.439 58.5629 100.254 58.0047 99.1677 57.3544C98.0818 64.6968 99.567 69.8092 103.314 71.8542C104.52 72.4866 105.882 72.8072 107.263 72.7836C110.718 72.8776 113.581 71.9472 117.925 68.6937L114.569 66.9288Z" fill="white"/>
<path d="M143.001 60.7018C143.593 65.8142 142.506 67.9522 140.237 69.1599C139.585 69.5321 138.823 69.6953 138.065 69.625C135.499 69.625 132.537 68.3235 129.381 66.0934C128.295 66.6506 127.209 67.2089 126.024 67.7662C130.368 71.1127 134.514 72.9716 138.068 72.9716C139.448 72.9953 140.811 72.6746 142.017 72.0422C145.867 69.9042 147.546 66.3725 146.262 58.9369C145.271 59.4933 144.087 60.0515 143.001 60.7018Z" fill="white"/>
<g opacity="0.5">
<g opacity="0.5">
<path opacity="0.5" d="M75.1848 144.894V137.161H78.0634C78.8609 137.111 79.6549 137.3 80.3312 137.701C80.5881 137.884 80.793 138.124 80.9278 138.399C81.0626 138.675 81.123 138.978 81.1037 139.281C81.1098 139.636 81.0004 139.985 80.7903 140.28C80.5796 140.571 80.2778 140.793 79.9269 140.915C80.3242 140.998 80.6775 141.211 80.925 141.515C81.1737 141.835 81.3016 142.224 81.2884 142.62C81.3115 142.937 81.2552 143.256 81.124 143.55C80.9927 143.844 80.7903 144.104 80.5328 144.311C79.9053 144.73 79.1457 144.936 78.3778 144.896L75.1848 144.894ZM76.8816 141.527V143.614H78.3309C78.6661 143.633 78.9974 143.538 79.2642 143.346C79.376 143.255 79.4643 143.14 79.5224 143.012C79.5805 142.884 79.6069 142.745 79.5995 142.605C79.6185 142.458 79.6012 142.308 79.5489 142.167C79.4965 142.027 79.4106 141.9 79.2977 141.796C79.1849 141.691 79.0481 141.613 78.8979 141.567C78.7477 141.52 78.5882 141.507 78.4317 141.528L76.8816 141.527ZM76.8816 140.399H78.1333C78.987 140.384 79.4139 140.064 79.4139 139.437C79.428 139.296 79.4058 139.154 79.3494 139.022C79.293 138.89 79.2038 138.773 79.0895 138.681C78.7826 138.504 78.4241 138.423 78.0654 138.45H76.8766L76.8816 140.399ZM93.9975 141.2C94.0134 141.889 93.8672 142.573 93.5693 143.202C93.3073 143.751 92.8783 144.214 92.3366 144.533C91.7863 144.85 91.1513 145.013 90.506 145.003C89.8648 145.013 89.2335 144.852 88.6845 144.54C88.1434 144.225 87.7121 143.768 87.4438 143.225C87.1399 142.607 86.9877 141.932 86.9986 141.251V140.863C86.9833 140.171 87.1327 139.484 87.4358 138.853C87.6996 138.304 88.1294 137.84 88.6715 137.52C89.2207 137.206 89.8535 137.045 90.4961 137.056C91.1387 137.045 91.7714 137.206 92.3206 137.52C92.8627 137.84 93.2925 138.304 93.5563 138.853C93.859 139.482 94.0084 140.167 93.9935 140.857L93.9975 141.2ZM92.2827 140.85C92.3271 140.205 92.1663 139.561 91.8206 139.002C91.6769 138.799 91.48 138.634 91.2488 138.524C91.0177 138.413 90.7601 138.36 90.5011 138.371C90.2436 138.36 89.9876 138.412 89.7574 138.522C89.5273 138.631 89.3308 138.794 89.1865 138.995C88.8402 139.547 88.6772 140.184 88.7184 140.825V141.2C88.6788 141.842 88.8394 142.481 89.1805 143.038C89.3216 143.248 89.5189 143.419 89.7526 143.535C89.9864 143.65 90.2483 143.706 90.512 143.696C90.7693 143.706 91.0251 143.654 91.2545 143.543C91.4838 143.433 91.6789 143.268 91.8206 143.066C92.1623 142.51 92.323 141.872 92.2827 141.231V140.85ZM106.663 141.2C106.679 141.889 106.532 142.573 106.235 143.202C105.974 143.749 105.547 144.211 105.008 144.53C104.457 144.847 103.822 145.01 103.177 145C102.536 145.01 101.905 144.85 101.356 144.538C100.815 144.222 100.383 143.765 100.115 143.222C99.8111 142.604 99.6589 141.929 99.6698 141.248V140.863C99.6545 140.171 99.8039 139.484 100.107 138.853C100.371 138.304 100.801 137.84 101.343 137.52C101.892 137.206 102.525 137.045 103.167 137.056C103.81 137.045 104.443 137.206 104.992 137.52C105.531 137.842 105.959 138.305 106.221 138.854C106.523 139.483 106.673 140.168 106.658 140.858L106.663 141.2ZM104.943 140.853C104.987 140.207 104.826 139.564 104.481 139.005C104.337 138.802 104.14 138.637 103.909 138.526C103.678 138.416 103.42 138.363 103.161 138.374C102.904 138.363 102.648 138.415 102.418 138.524C102.188 138.634 101.991 138.797 101.847 138.998C101.5 139.55 101.337 140.187 101.379 140.827V141.203C101.339 141.845 101.5 142.484 101.841 143.041C101.982 143.251 102.179 143.422 102.413 143.538C102.647 143.653 102.909 143.708 103.172 143.698C103.43 143.709 103.685 143.656 103.915 143.546C104.144 143.436 104.339 143.271 104.481 143.069C104.823 142.512 104.984 141.872 104.943 141.23V140.853ZM118.28 138.453H115.765V144.894H114.068V138.453H111.59V137.162H118.278L118.28 138.453ZM130.223 142.319C130.211 142.692 130.118 143.059 129.95 143.397C129.782 143.735 129.542 144.036 129.245 144.284C128.59 144.784 127.761 145.039 126.919 145.001C126.451 145.022 125.985 144.943 125.554 144.769C125.124 144.596 124.741 144.333 124.434 144C123.79 143.217 123.469 142.241 123.529 141.252V140.782C123.514 140.106 123.657 139.436 123.946 138.817C124.199 138.28 124.616 137.826 125.144 137.514C125.687 137.204 126.312 137.047 126.946 137.06C127.777 137.023 128.593 137.278 129.235 137.777C129.837 138.298 130.198 139.021 130.239 139.79H128.543C128.543 139.388 128.385 139.001 128.099 138.703C127.773 138.456 127.359 138.335 126.941 138.366C126.695 138.351 126.45 138.396 126.228 138.496C126.007 138.596 125.816 138.747 125.674 138.937C125.351 139.475 125.201 140.091 125.243 140.708V141.293C125.193 141.926 125.331 142.561 125.642 143.125C125.781 143.318 125.972 143.474 126.195 143.575C126.419 143.677 126.666 143.721 126.914 143.704C127.335 143.735 127.754 143.615 128.084 143.367C128.368 143.085 128.526 142.712 128.528 142.324L130.223 142.319ZM140.661 143.301H137.694L137.131 144.899H135.334L138.391 137.166H139.959L143.033 144.899H141.237L140.661 143.301ZM138.151 142.011H140.204L139.172 139.116L138.151 142.011ZM150.698 137.162L152.807 142.77L154.903 137.162H157.125V144.895H155.428V142.78L155.598 139.132L153.383 144.894H152.224L150.01 139.138L150.18 142.78V144.894H148.483V137.161L150.698 137.162ZM164.988 142.169V144.895H163.291V137.162H166.495C167.056 137.151 167.613 137.26 168.122 137.481C168.569 137.676 168.945 137.99 169.202 138.386C169.458 138.789 169.589 139.252 169.581 139.721C169.597 140.06 169.531 140.397 169.388 140.708C169.245 141.018 169.028 141.294 168.754 141.513C168.1 141.983 167.289 142.216 166.467 142.171L164.988 142.169ZM164.988 140.879H166.497C166.866 140.903 167.231 140.798 167.521 140.582C167.642 140.474 167.736 140.342 167.797 140.196C167.857 140.05 167.884 139.893 167.874 139.736C167.882 139.569 167.854 139.401 167.793 139.243C167.732 139.086 167.639 138.941 167.518 138.817C167.39 138.697 167.236 138.603 167.068 138.541C166.899 138.479 166.718 138.45 166.537 138.456H164.986L164.988 140.879Z" fill="white"/>
</g>
</g>
<path d="M66.1817 119.356C64.8781 120.749 63.202 121.787 61.3278 122.364C59.0941 123.098 56.7415 123.459 54.3759 123.431C51.9196 123.482 49.4935 122.914 47.3491 121.785C45.3187 120.67 43.6933 119.004 42.6858 117.005C41.5402 114.702 40.9641 112.184 41.001 109.641V107.667C40.9345 105.079 41.4661 102.509 42.5591 100.133C43.4974 98.1186 45.0638 96.4203 47.0506 95.2631C49.1313 94.1079 51.5138 93.5239 53.9287 93.5772C57.5885 93.5772 60.4498 94.3989 62.5126 96.0422C64.6848 97.8898 66.0013 100.465 66.1797 103.216H59.9913C59.854 101.826 59.188 100.529 58.1158 99.5645C56.9758 98.7399 55.5586 98.3289 54.1233 98.4067C53.1604 98.3597 52.2008 98.546 51.3361 98.9478C50.4715 99.3496 49.7307 99.9534 49.1846 100.702C48.0534 102.232 47.4811 104.507 47.4678 107.527V109.383C47.4678 112.43 48.0827 114.732 49.3124 116.289C49.9403 117.066 50.7618 117.686 51.7045 118.093C52.6472 118.5 53.6819 118.683 54.7172 118.624C57.1054 118.624 58.8082 118.145 59.8256 117.187V112.178H54.0365V107.768H66.1817V119.356ZM69.9746 112.032C69.9367 110.052 70.3866 108.092 71.2891 106.304C72.1124 104.682 73.4295 103.327 75.073 102.412C76.8154 101.47 78.7977 100.994 80.8063 101.035C82.1948 100.984 83.5803 101.194 84.8815 101.653C86.1827 102.113 87.3735 102.812 88.384 103.71C90.4158 105.652 91.5867 108.249 91.6589 110.974L91.7008 112.451C91.851 115.367 90.7949 118.225 88.7543 120.424C87.7433 121.43 86.5138 122.22 85.1495 122.739C83.7852 123.258 82.3181 123.494 80.8482 123.431C79.378 123.494 77.9105 123.26 76.5447 122.743C75.179 122.227 73.9467 121.441 72.931 120.438C70.9601 118.442 69.9746 115.728 69.9746 112.296V112.032ZM76.1001 112.451C75.9884 114.099 76.4177 115.739 77.3298 117.15C77.7226 117.679 78.2512 118.105 78.8665 118.39C79.4818 118.674 80.1635 118.807 80.8482 118.776C81.5239 118.802 82.1956 118.668 82.8026 118.387C83.4096 118.107 83.9327 117.688 84.3246 117.169C85.1584 116.098 85.5753 114.385 85.5753 112.031C85.6799 110.39 85.243 108.759 84.3246 107.361C83.9349 106.827 83.4077 106.395 82.7923 106.105C82.177 105.816 81.4937 105.678 80.8063 105.704C80.1259 105.677 79.4494 105.814 78.8411 106.102C78.2327 106.391 77.7125 106.82 77.3298 107.351C76.391 108.898 75.9639 110.674 76.1031 112.452L76.1001 112.451ZM111.88 115.404C111.909 114.906 111.808 114.408 111.586 113.954C111.365 113.5 111.029 113.104 110.608 112.8C109.193 111.95 107.65 111.305 106.031 110.888C104.228 110.37 102.476 109.706 100.796 108.902C97.291 107.119 95.5386 104.718 95.5386 101.698C95.5173 100.191 96.0114 98.7185 96.9479 97.497C97.9832 96.1969 99.3862 95.1974 100.996 94.6128C102.878 93.9005 104.892 93.549 106.92 93.5791C108.947 93.5454 110.957 93.9303 112.809 94.7068C114.442 95.3841 115.835 96.4857 116.827 97.8823C117.786 99.2704 118.284 100.896 118.257 102.552H111.898C111.932 101.974 111.83 101.397 111.599 100.86C111.369 100.324 111.014 99.8428 110.562 99.4508C109.5 98.6579 108.163 98.2633 106.81 98.3428C105.527 98.2696 104.254 98.5955 103.186 99.2704C102.775 99.5476 102.442 99.915 102.216 100.341C101.99 100.767 101.878 101.238 101.889 101.714C101.901 102.199 102.047 102.673 102.313 103.09C102.579 103.506 102.954 103.85 103.404 104.089C104.793 104.884 106.295 105.488 107.865 105.885C111.483 106.909 114.118 108.179 115.772 109.696C116.581 110.427 117.219 111.308 117.646 112.284C118.073 113.26 118.28 114.309 118.252 115.364C118.301 116.509 118.05 117.648 117.521 118.681C116.993 119.713 116.203 120.607 115.221 121.285C112.823 122.82 109.956 123.574 107.06 123.43C104.829 123.458 102.618 123.04 100.572 122.203C98.7768 121.502 97.2296 120.336 96.1105 118.84C95.0732 117.377 94.5368 115.65 94.5734 113.89H100.953C100.953 117.097 102.988 118.7 107.058 118.7C108.305 118.769 109.544 118.465 110.597 117.832C111.01 117.561 111.344 117.197 111.569 116.773C111.793 116.349 111.9 115.879 111.881 115.405L111.88 115.404ZM129.494 96.1259V101.435H133.415V105.664H129.494V116.441C129.435 117.049 129.607 117.658 129.981 118.157C130.238 118.359 130.536 118.509 130.857 118.598C131.177 118.688 131.514 118.714 131.846 118.676C132.45 118.682 133.053 118.635 133.648 118.536V122.907C132.446 123.253 131.196 123.428 129.939 123.425C125.643 123.425 123.453 121.383 123.368 117.299V105.666H120.021V101.437H123.369V96.1277L129.494 96.1259ZM150.118 123.028C149.806 122.417 149.598 121.764 149.503 121.092C148.78 121.858 147.886 122.464 146.885 122.867C145.885 123.271 144.802 123.462 143.714 123.427C141.672 123.497 139.677 122.842 138.125 121.591C137.413 121.023 136.845 120.313 136.462 119.512C136.078 118.711 135.89 117.839 135.91 116.961C135.856 115.94 136.075 114.922 136.547 114.002C137.019 113.081 137.73 112.287 138.613 111.692C140.415 110.468 143.018 109.849 146.424 109.836H149.243V108.599C149.289 107.733 148.999 106.882 148.426 106.204C148.094 105.884 147.691 105.638 147.246 105.482C146.801 105.327 146.324 105.267 145.851 105.306C144.979 105.257 144.118 105.505 143.424 106.004C143.132 106.239 142.901 106.534 142.748 106.866C142.596 107.198 142.526 107.559 142.544 107.92H136.419C136.418 106.666 136.85 105.446 137.649 104.443C138.542 103.324 139.745 102.458 141.125 101.938C142.723 101.315 144.44 101.006 146.17 101.031C148.597 100.907 150.989 101.62 152.899 103.036C153.739 103.738 154.4 104.61 154.833 105.586C155.265 106.563 155.457 107.619 155.394 108.675V118.035C155.312 119.63 155.624 121.222 156.306 122.685V123.024L150.118 123.028ZM145.053 119.017C145.923 119.025 146.783 118.829 147.554 118.448C148.27 118.112 148.862 117.58 149.251 116.921V113.209H146.962C143.896 113.209 142.264 114.207 142.065 116.202L142.044 116.542C142.034 116.875 142.101 117.206 142.24 117.513C142.379 117.819 142.587 118.094 142.85 118.318C143.461 118.809 144.25 119.059 145.053 119.017ZM169.64 118.777C170.643 118.819 171.626 118.506 172.396 117.9C172.746 117.607 173.025 117.247 173.215 116.844C173.404 116.441 173.5 116.005 173.494 115.564H179.238C179.236 116.992 178.794 118.389 177.967 119.586C177.125 120.81 175.94 121.791 174.543 122.42C173.048 123.102 171.404 123.447 169.742 123.427C168.3 123.496 166.859 123.268 165.519 122.76C164.18 122.252 162.974 121.475 161.985 120.484C160.093 118.522 159.147 115.811 159.147 112.351V111.975C158.989 109.082 159.996 106.238 161.966 104.012C162.945 103.013 164.145 102.228 165.482 101.714C166.819 101.2 168.26 100.97 169.702 101.039C172.234 100.924 174.713 101.752 176.601 103.344C177.472 104.136 178.157 105.091 178.612 106.148C179.067 107.204 179.282 108.339 179.242 109.478H173.498C173.517 108.471 173.124 107.495 172.4 106.753C172.039 106.403 171.603 106.129 171.122 105.948C170.64 105.768 170.123 105.685 169.606 105.705C168.979 105.671 168.353 105.787 167.787 106.044C167.221 106.301 166.735 106.689 166.373 107.172C165.645 108.15 165.281 109.737 165.281 111.932V112.531C165.281 114.752 165.641 116.35 166.362 117.324C166.732 117.809 167.227 118.197 167.801 118.452C168.374 118.707 169.007 118.821 169.64 118.782V118.777ZM191.07 114.365L188.865 116.443V123.029H182.74V92.3743H188.865V109.358L190.052 107.921L195.923 101.437H203.278L194.994 110.437L204.002 123.03H196.963L191.07 114.365Z" fill="white"/>
</g>
<defs>
<clipPath id="clip0">
<rect width="163" height="137" fill="white" transform="translate(41 8)"/>
</clipPath>
</defs>
</svg>
